<svg width="75" height="80" viewBox="0 0 75 80" fill="none" xmlns="http://www.w3.org/2000/svg">
<rect width="75" height="80" rx="37.5" fill="#F9F9F9"/>
<path d="M32.9186 59.016V49.0023C32.9186 48.3024 33.6821 47.5881 34.4457 47.5881H40.5543C41.3179 47.5881 42.0814 48.3024 42.0814 49.0166V59.016C42.0814 59.3948 42.2423 59.7582 42.5287 60.0261C42.8151 60.294 43.2036 60.4445 43.6086 60.4445H55.8258C56.2308 60.4445 56.6192 60.294 56.9056 60.0261C57.192 59.7582 57.3529 59.3948 57.3529 59.016V39.0173C57.3533 38.8295 57.3141 38.6436 57.2376 38.4701C57.1611 38.2965 57.0487 38.1388 56.907 38.0059L52.7715 34.1404V24.7325C52.7715 24.3536 52.6106 23.9903 52.3242 23.7224C52.0378 23.4545 51.6494 23.304 51.2443 23.304H48.19C47.785 23.304 47.3966 23.4545 47.1102 23.7224C46.8238 23.9903 46.6629 24.3536 46.6629 24.7325V28.4265L38.5812 20.8641C38.4394 20.7311 38.2708 20.6256 38.0853 20.5535C37.8998 20.4815 37.7009 20.4445 37.5 20.4445C37.2991 20.4445 37.1002 20.4815 36.9147 20.5535C36.7292 20.6256 36.5606 20.7311 36.4188 20.8641L18.093 38.0059C17.9513 38.1388 17.8389 38.2965 17.7624 38.4701C17.6859 38.6436 17.6467 38.8295 17.6471 39.0173V59.016C17.6471 59.3948 17.808 59.7582 18.0944 60.0261C18.3807 60.294 18.7692 60.4445 19.1742 60.4445H31.3914C31.7964 60.4445 32.1849 60.294 32.4713 60.0261C32.7577 59.7582 32.9186 59.3948 32.9186 59.016Z" fill="#A6B9FF"/>
</svg>
